<svg width="118" height="18" viewBox="0 0 118 18" fill="none" xmlns="http://www.w3.org/2000/svg">
<path d="M9.952 11.192V17H7.576V11.144L0.904 0.199999H3.472L8.848 9.056L14.248 0.199999H16.624L9.952 11.192ZM31.6898 14.912V17H19.4978V0.199999H31.3538V2.288H21.8978V7.448H30.3218V9.488H21.8978V14.912H31.6898ZM36.2959 0.199999H38.6959V14.912H47.7919V17H36.2959V0.199999ZM63.8179 14.912V17H49.7779V15.368L60.3379 2.288H49.9459V0.199999H63.5059V1.832L52.9939 14.912H63.8179ZM82.2074 0.199999V17H79.8074V9.512H70.1594V17H67.7594V0.199999H70.1594V7.424H79.8074V0.199999H82.2074ZM98.6599 12.8H89.7319L87.8839 17H85.4119L93.0199 0.199999H95.3959L103.028 17H100.508L98.6599 12.8ZM97.8199 10.88L94.1959 2.648L90.5719 10.88H97.8199ZM111.15 17.192C109.886 17.192 108.662 17 107.478 16.616C106.31 16.216 105.39 15.704 104.718 15.08L105.606 13.208C106.246 13.784 107.062 14.256 108.054 14.624C109.062 14.976 110.094 15.152 111.15 15.152C112.542 15.152 113.582 14.92 114.27 14.456C114.958 13.976 115.302 13.344 115.302 12.56C115.302 11.984 115.11 11.52 114.726 11.168C114.358 10.8 113.894 10.52 113.334 10.328C112.79 10.136 112.014 9.92 111.006 9.68C109.742 9.376 108.718 9.072 107.934 8.768C107.166 8.464 106.502 8 105.942 7.376C105.398 6.736 105.126 5.88 105.126 4.808C105.126 3.912 105.358 3.104 105.822 2.384C106.302 1.664 107.022 1.088 107.982 0.655999C108.942 0.224 110.134 0.0079999 111.558 0.0079999C112.55 0.0079999 113.526 0.136 114.486 0.391999C115.446 0.647999 116.27 1.016 116.958 1.496L116.166 3.416C115.462 2.968 114.71 2.632 113.91 2.408C113.11 2.168 112.326 2.048 111.558 2.048C110.198 2.048 109.174 2.296 108.486 2.792C107.814 3.288 107.478 3.928 107.478 4.712C107.478 5.288 107.67 5.76 108.054 6.128C108.438 6.48 108.91 6.76 109.47 6.968C110.046 7.16 110.822 7.368 111.798 7.592C113.062 7.896 114.078 8.2 114.846 8.504C115.614 8.808 116.27 9.272 116.814 9.896C117.374 10.52 117.654 11.36 117.654 12.416C117.654 13.296 117.414 14.104 116.934 14.84C116.454 15.56 115.726 16.136 114.75 16.568C113.774 16.984 112.574 17.192 111.15 17.192Z" fill="black"/>
</svg>
